HIERARCHY
ROOT Hips
{
	OFFSET -246.377396 91.733124 -540.268188
	CHANNELS 6 Xposition Yposition Zposition Zrotation Yrotation Xrotation 
	JOINT LeftUpLeg
	{
		OFFSET 0.103454 1.857841 10.548504
		CHANNELS 3 Zrotation Yrotation Xrotation
		JOINT LeftLeg
		{
			OFFSET 43.499992 -0.000061 0.000000
			CHANNELS 3 Zrotation Yrotation Xrotation
			JOINT LeftFoot
			{
				OFFSET 42.372196 0.000008 -0.000002
				CHANNELS 3 Zrotation Yrotation Xrotation
				JOINT LeftToe
				{
					OFFSET 17.300022 0.000011 0.000012
					CHANNELS 3 Zrotation Yrotation Xrotation
					End Site
					{
						OFFSET 0.000000 0.000000 0.000000
					}
				}
			}
		}
	}
	JOINT RightUpLeg
	{
		OFFSET 0.103458 1.857820 -10.548491
		CHANNELS 3 Zrotation Yrotation Xrotation
		JOINT RightLeg
		{
			OFFSET 43.500046 0.000015 0.000006
			CHANNELS 3 Zrotation Yrotation Xrotation
			JOINT RightFoot
			{
				OFFSET 42.372269 -0.000046 0.000017
				CHANNELS 3 Zrotation Yrotation Xrotation
				JOINT RightToe
				{
					OFFSET 17.300032 0.000011 0.000015
					CHANNELS 3 Zrotation Yrotation Xrotation
					End Site
					{
						OFFSET 0.000000 0.000000 0.000000
					}
				}
			}
		}
	}
	JOINT Spine
	{
		OFFSET 6.901962 -2.603707 -0.000004
		CHANNELS 3 Zrotation Yrotation Xrotation
		JOINT Spine1
		{
			OFFSET 12.588104 -0.000004 -0.000001
			CHANNELS 3 Zrotation Yrotation Xrotation
			JOINT Spine2
			{
				OFFSET 12.343199 -0.000026 0.000003
				CHANNELS 3 Zrotation Yrotation Xrotation
				JOINT Neck
				{
					OFFSET 25.832890 0.000004 -0.000006
					CHANNELS 3 Zrotation Yrotation Xrotation
					JOINT Head
					{
						OFFSET 11.766623 0.000031 0.000004
						CHANNELS 3 Zrotation Yrotation Xrotation
						End Site
						{
							OFFSET 0.000000 0.000000 0.000000
						}
					}
				}
				JOINT LeftShoulder
				{
					OFFSET 19.745897 -1.480345 6.000100
					CHANNELS 3 Zrotation Yrotation Xrotation
					JOINT LeftArm
					{
						OFFSET 11.284126 0.000003 -0.000015
						CHANNELS 3 Zrotation Yrotation Xrotation
						JOINT LeftForeArm
						{
							OFFSET 33.000057 -0.000023 0.000027
							CHANNELS 3 Zrotation Yrotation Xrotation
							JOINT LeftHand
							{
								OFFSET 25.199987 0.000051 0.000021
								CHANNELS 3 Zrotation Yrotation Xrotation
								End Site
								{
									OFFSET 0.000000 0.000000 0.000000
								}
							}
						}
					}
				}
				JOINT RightShoulder
				{
					OFFSET 19.746086 -1.480362 -6.000076
					CHANNELS 3 Zrotation Yrotation Xrotation
					JOINT RightArm
					{
						OFFSET 11.284140 0.000004 -0.000015
						CHANNELS 3 Zrotation Yrotation Xrotation
						JOINT RightForeArm
						{
							OFFSET 33.000084 -0.000023 0.000011
							CHANNELS 3 Zrotation Yrotation Xrotation
							JOINT RightHand
							{
								OFFSET 25.199789 0.000148 0.000422
								CHANNELS 3 Zrotation Yrotation Xrotation
								End Site
								{
									OFFSET 0.000000 0.000000 0.000000
								}
							}
						}
					}
				}
			}
		}
	}
}
MOTION
Frames: 9
Frame Time: 0.033333
215.936203 84.724327 200.433594 94.353627 -5.378578 -146.818973 166.546786 -4.914998 -174.799963 -46.649868 -6.633368 -2.021218 90.775304 1.009176 -3.586724 21.454553 0.003089 -0.000002 154.914537 23.263109 -172.100659 -72.403639 -1.335685 2.519346 68.160179 1.569176 9.225138 21.454555 -0.003108 -0.000017 8.453629 -1.277368 1.863685 6.853812 -2.662565 3.649585 6.536061 -2.640355 3.665582 -20.863952 -9.180970 6.145214 -15.653521 15.005876 -2.605829 -144.852739 -68.764398 -37.675108 -21.869415 56.614168 -9.507903 -86.163567 -8.378322 2.721729 33.074546 10.623753 81.270836 -161.626987 79.060259 20.191074 -0.749457 -55.460948 24.888516 -99.191272 0.278378 -2.777996 13.155400 -23.593000 -35.677148 
217.211304 84.593948 200.083603 93.986156 -4.988781 -145.299926 166.539369 -6.644099 -177.723462 -47.074231 -6.212586 0.801537 91.336329 -0.713502 -2.188255 21.454551 0.003094 0.000001 153.096067 23.318105 -172.781711 -73.990381 -1.759685 3.160813 72.042397 0.614946 8.711157 21.454560 -0.003109 -0.000016 8.401233 -1.267444 1.728826 6.752492 -2.633308 3.381815 6.434654 -2.612708 3.397640 -20.745342 -9.709139 5.701819 -15.901222 15.197241 -3.332055 -147.025026 -70.417024 -35.376821 -22.792171 56.299521 -7.378021 -84.401071 -9.930554 2.753083 27.540366 4.158280 87.565969 -157.244041 78.284623 24.662476 3.359096 -56.865799 20.425524 -97.915775 0.779845 -2.755878 11.665771 -18.255610 -37.470288 
218.707306 85.599541 199.716202 93.452930 -4.584818 -143.253177 168.291148 -7.364300 -177.330562 -43.274876 -6.603436 1.693560 90.050484 -1.295931 -1.897506 21.454553 0.003095 -0.000000 153.734185 22.950108 -172.956946 -70.852209 -0.552370 6.151335 74.547820 -1.918661 8.323834 21.454560 -0.003109 -0.000015 8.217518 -1.167170 1.381184 6.395239 -2.408602 2.696543 6.077224 -2.392156 2.711043 -21.087454 -10.633691 5.917839 -15.637660 15.560032 -3.581052 -147.445015 -70.162189 -34.953507 -21.264860 56.887232 -3.978735 -83.447344 -10.739604 2.768051 21.922556 -1.139274 98.006535 -155.569224 77.690342 26.379912 7.898181 -57.575612 13.611976 -96.159761 1.532439 -2.729743 15.131482 -13.241315 -46.329651 
220.433502 87.234779 199.596100 93.080076 -3.129882 -141.113716 170.234296 -9.126405 -178.061351 -37.792263 -6.030983 2.961329 87.109050 -2.312322 -2.264351 21.454553 0.003099 -0.000001 156.203667 20.976103 -171.532742 -63.551167 0.790702 9.030565 77.502840 -4.320828 7.997397 21.454555 -0.003109 -0.000022 7.822356 -0.843526 1.191828 5.614701 -1.743598 2.341791 5.296737 -1.729288 2.352279 -21.849765 -10.585045 5.823346 -14.494708 15.267606 -3.458107 -146.405405 -69.791296 -36.036905 -18.317266 58.938379 -1.070427 -83.177934 -10.857680 2.764531 18.265632 -4.454071 106.281200 -153.852402 77.142595 28.142003 12.875941 -57.814519 6.112161 -94.899085 2.156634 -2.716855 22.344064 -11.139586 -62.552136 
222.251999 88.813972 199.638199 92.822940 -1.373411 -138.832583 171.206464 -11.507295 -179.107012 -33.350728 -5.865873 4.611912 82.593844 -3.611127 -2.347161 21.454550 0.003095 0.000002 159.627928 18.359496 -169.731348 -53.750385 2.090193 9.707825 80.578877 -5.086296 7.690524 21.454558 -0.003108 -0.000018 7.430680 -0.480722 1.157407 4.838611 -1.009085 2.293929 4.520737 -0.995075 2.299978 -23.285168 -10.426161 5.531422 -13.500944 15.722247 -3.841960 -146.065890 -69.773313 -36.387102 -14.559988 61.419206 0.106789 -84.365315 -10.239536 2.773241 19.180139 -4.832186 107.906607 -153.322789 76.391383 28.700677 16.672147 -57.019041 0.801842 -94.324940 2.531931 -2.717350 35.715213 -11.450512 -79.550612 
223.982101 89.986023 199.749100 92.236186 -0.089894 -136.312503 170.067558 -13.631306 179.000393 -32.357034 -5.725946 6.845716 77.419156 -5.912629 -4.310331 21.454551 0.003096 0.000001 163.145448 16.017108 -168.037475 -43.271427 2.564542 8.298074 82.468073 -4.100364 8.187703 21.454562 -0.003109 -0.000018 7.116448 -0.307239 1.159730 4.213532 -0.656109 2.307643 3.895683 -0.642036 2.311567 -25.005164 -9.912645 4.789725 -12.626586 16.276506 -4.591428 -145.193156 -69.978225 -37.277707 -12.095818 63.115442 -0.760363 -85.805816 -8.958280 2.746665 23.401884 -2.803561 100.779899 -154.220617 75.595113 27.803258 19.380983 -56.359678 -1.014776 -93.963814 2.631546 -2.708142 47.310839 -13.957738 -83.962102 
225.645493 90.159119 200.000793 91.662915 0.521548 -133.389770 166.586811 -16.216399 177.748966 -36.200764 -6.556836 8.928376 75.630063 -9.713549 -11.683812 21.454555 0.003091 0.000001 166.163435 14.134996 -167.778433 -35.070781 2.512319 6.110061 83.760222 -2.451427 9.061541 21.454560 -0.003107 -0.000018 6.985101 -0.274578 1.164058 3.951456 -0.588323 2.318206 3.633632 -0.574172 2.321718 -26.265028 -9.901541 4.002831 -12.408518 17.530635 -5.859895 -145.771700 -69.736402 -36.691407 -12.632157 62.154988 -3.215459 -86.943233 -7.834422 2.718002 28.987166 1.318641 90.252317 -154.597165 75.093238 27.430159 21.269825 -56.205493 -0.229062 -93.869031 2.391063 -2.687080 50.548085 -18.193237 -77.006947 
227.233795 89.216614 200.330505 91.140849 0.591450 -130.059506 161.789245 -18.538414 176.954547 -43.003749 -6.841828 10.188743 77.816120 -13.462222 -22.558704 21.454555 0.003096 0.000003 168.453543 12.853300 -170.416799 -30.296677 3.347698 5.144439 83.166118 -1.690026 9.292376 21.454560 -0.003112 -0.000017 7.001729 -0.354996 1.149973 3.983219 -0.748961 2.287240 3.665389 -0.734992 2.291712 -25.934302 -9.783015 2.953358 -13.373685 18.391848 -7.269766 -146.249622 -70.379704 -36.175807 -14.767632 60.988740 -7.614525 -88.195965 -6.659359 2.691033 34.369020 8.772314 81.029430 -154.103493 74.916766 27.939179 21.653786 -56.425098 2.405753 -94.438089 1.983035 -2.684081 46.936701 -23.071756 -68.507556 
228.821899 87.665382 200.533005 92.162113 0.284805 -126.677497 157.846300 -21.021999 176.849075 -48.868590 -5.595435 12.167336 79.559751 -13.581978 -18.975836 21.454551 0.003090 -0.000001 170.122445 11.565604 -171.061637 -31.730153 3.827837 5.791067 85.383430 -2.137303 10.204888 21.454563 -0.003114 -0.000018 7.371300 -0.216159 1.199956 4.724790 -0.480789 2.390168 4.406985 -0.466204 2.393033 -25.082920 -9.664776 1.971009 -14.185756 18.759629 -8.384410 -147.446108 -71.390093 -34.909780 -18.090741 59.522189 -13.527880 -89.358648 -5.471304 2.659338 36.274855 16.811309 73.738319 -153.921605 74.779862 28.128570 18.918996 -56.570321 7.421841 -95.450473 1.450219 -2.692220 39.514635 -26.184080 -61.285901 
